<svg width="36" height="36" viewBox="0 0 36 36" fill="none" xmlns="http://www.w3.org/2000/svg">
<path d="M16 36V20.05C13.8667 20.05 11.8167 19.6417 9.85 18.825C7.88333 18.0083 6.15 16.85 4.65 15.35C3.15 13.85 2 12.1167 1.2 10.15C0.4 8.18333 0 6.13333 0 4V0H4C6.1 0 8.13333 0.408333 10.1 1.225C12.0667 2.04167 13.8 3.2 15.3 4.7C16.3333 5.73333 17.1917 6.86667 17.875 8.1C18.5583 9.33333 19.0833 10.65 19.45 12.05C19.6167 11.8167 19.8 11.5917 20 11.375C20.2 11.1583 20.4167 10.9333 20.65 10.7C22.15 9.2 23.8833 8.04167 25.85 7.225C27.8167 6.40833 29.8667 6 32 6H36V10C36 12.1333 35.5917 14.1833 34.775 16.15C33.9583 18.1167 32.8 19.85 31.3 21.35C29.8 22.85 28.075 24 26.125 24.8C24.175 25.6 22.1333 26 20 26V36H16Z" fill="#00FF88"/>
</svg>
